# xmcd
#
# Track frame offsets:
#	150
#	13340
#	22865
#	35795
#	49991
#	66843
#	81944
#	94741
#	108134
#	120352
#	133788
#	147928
#	161975
#	176080
#	187413
#	202616
#	218681
#	231190
#	244584
#	257269
#	268935
#	283271
#
# Disc length: 3961 seconds
#
# Revision: 0
# Processed by: cddbd v1.5.2PL0 Copyright (c) Steve Scherf et al.
# Submitted via: EasyCDDAExtractor 11.0.2.1
#
DISCID=440f7716
DTITLE=Duke Ellington - Duke Ellington - Caravan
DYEAR=1998
DGENRE=Blues
TTITLE0=The Clothed Woman
TTITLE1=Tip Toe Topic
TTITLE2=Tonk
TTITLE3=Frankie and Johnny
TTITLE4=Things ain't what they used to be
TTITLE5=subtle slough
TTITLE6=without a song
TTITLE7=dooji wooji
TTITLE8=rent party blues 
TTITLE9=chasin' chippies
TTITLE10=Charlie the chulo
TTITLE11=caravan
TTITLE12=good queen bess
TTITLE13=squaty roo
TTITLE14=menelik
TTITLE15=a lull at down
TTITLE16=goin' out the back way
TTITLE17=jeep's bleue
TTITLE18=bleus
TTITLE19=early mornin
TTITLE20=mood indigo
TTITLE21=in sentimental mood
EXTD=
EXTT0=
EXTT1=
EXTT2=
EXTT3=
EXTT4=
EXTT5=
EXTT6=
EXTT7=
EXTT8=
EXTT9=
EXTT10=
EXTT11=
EXTT12=
EXTT13=
EXTT14=
EXTT15=
EXTT16=
EXTT17=
EXTT18=
EXTT19=
EXTT20=
EXTT21=
PLAYORDER=
